<svg width="19" height="19" viewBox="0 0 19 19" fill="none" xmlns="http://www.w3.org/2000/svg">
<path d="M7.49708 12.0966C7.34667 12.0966 7.19625 12.0412 7.0775 11.9224C6.42833 11.2733 6.07208 10.4104 6.07208 9.49994C6.07208 7.60785 7.60792 6.07202 9.5 6.07202C10.4104 6.07202 11.2733 6.42827 11.9225 7.07744C12.0333 7.18827 12.0967 7.33869 12.0967 7.49702C12.0967 7.65535 12.0333 7.80577 11.9225 7.9166L7.91667 11.9224C7.79792 12.0412 7.6475 12.0966 7.49708 12.0966ZM9.5 7.25952C8.265 7.25952 7.25958 8.26494 7.25958 9.49994C7.25958 9.89577 7.3625 10.2758 7.5525 10.6083L10.6083 7.55244C10.2758 7.36244 9.89583 7.25952 9.5 7.25952Z" fill="#666666"/>
<path d="M4.43339 14.6537C4.29881 14.6537 4.15631 14.6062 4.04548 14.5112C3.19839 13.7908 2.43839 12.9041 1.78923 11.875C0.950059 10.5687 0.950059 8.43913 1.78923 7.12496C3.72089 4.1008 6.53131 2.35913 9.50006 2.35913C11.2417 2.35913 12.9596 2.9608 14.4638 4.09288C14.7251 4.2908 14.7805 4.66288 14.5826 4.92413C14.3846 5.18538 14.0126 5.2408 13.7513 5.04288C12.453 4.06121 10.9805 3.54663 9.50006 3.54663C6.94298 3.54663 4.49673 5.08246 2.78673 7.76621C2.19298 8.69246 2.19298 10.3075 2.78673 11.2337C3.38048 12.16 4.06131 12.9595 4.81339 13.6087C5.05881 13.8225 5.09048 14.1945 4.87673 14.4479C4.76589 14.5825 4.59964 14.6537 4.43339 14.6537Z" fill="#666666"/>
<path d="M9.49997 16.6409C8.44705 16.6409 7.41788 16.4271 6.4283 16.0075C6.12747 15.8809 5.98497 15.5325 6.11163 15.2317C6.2383 14.9309 6.58663 14.7884 6.88747 14.915C7.72663 15.2713 8.60538 15.4534 9.49205 15.4534C12.0491 15.4534 14.4954 13.9175 16.2054 11.2338C16.7991 10.3075 16.7991 8.69252 16.2054 7.76627C15.96 7.37835 15.6908 7.00627 15.4058 6.65794C15.2 6.4046 15.2396 6.03252 15.4929 5.81877C15.7462 5.61294 16.1183 5.6446 16.3321 5.90585C16.6408 6.28585 16.9416 6.69752 17.2108 7.12502C18.05 8.43127 18.05 10.5609 17.2108 11.875C15.2791 14.8992 12.4687 16.6409 9.49997 16.6409Z" fill="#666666"/>
<path d="M10.0462 12.8804C9.76915 12.8804 9.51582 12.6825 9.4604 12.3975C9.39707 12.0729 9.61082 11.7642 9.9354 11.7088C10.8062 11.5504 11.5346 10.8221 11.6929 9.95128C11.7562 9.6267 12.065 9.42086 12.3896 9.47628C12.7141 9.53961 12.9279 9.84836 12.8646 10.1729C12.6112 11.5425 11.5187 12.6271 10.1571 12.8804C10.1175 12.8725 10.0858 12.8804 10.0462 12.8804Z" fill="#666666"/>
<path d="M1.58335 18.0104C1.43293 18.0104 1.28251 17.955 1.16376 17.8362C0.934181 17.6067 0.934181 17.2267 1.16376 16.9971L7.07751 11.0833C7.3071 10.8537 7.6871 10.8537 7.91668 11.0833C8.14627 11.3129 8.14627 11.6929 7.91668 11.9225L2.00293 17.8362C1.88418 17.955 1.73376 18.0104 1.58335 18.0104Z" fill="#666666"/>
<path d="M11.5029 8.09073C11.3525 8.09073 11.2021 8.03531 11.0833 7.91656C10.8537 7.68698 10.8537 7.30698 11.0833 7.07739L16.9971 1.16364C17.2267 0.934059 17.6067 0.934059 17.8362 1.16364C18.0658 1.39323 18.0658 1.77323 17.8362 2.00281L11.9225 7.91656C11.8037 8.03531 11.6533 8.09073 11.5029 8.09073Z" fill="#666666"/>
</svg>
