<svg width="19" height="19" viewBox="0 0 19 19" fill="none" xmlns="http://www.w3.org/2000/svg">
<path d="M9.5 12.9279C7.60792 12.9279 6.07208 11.392 6.07208 9.49994C6.07208 7.60785 7.60792 6.07202 9.5 6.07202C11.3921 6.07202 12.9279 7.60785 12.9279 9.49994C12.9279 11.392 11.3921 12.9279 9.5 12.9279ZM9.5 7.25952C8.265 7.25952 7.25958 8.26494 7.25958 9.49994C7.25958 10.7349 8.265 11.7404 9.5 11.7404C10.735 11.7404 11.7404 10.7349 11.7404 9.49994C11.7404 8.26494 10.735 7.25952 9.5 7.25952Z" fill="#666666"/>
<path d="M9.49998 16.6408C6.52331 16.6408 3.7129 14.8991 1.78123 11.875C0.942064 10.5687 0.942064 8.43913 1.78123 7.12496C3.72081 4.1008 6.53123 2.35913 9.49998 2.35913C12.4687 2.35913 15.2791 4.1008 17.2108 7.12496C18.05 8.43121 18.05 10.5608 17.2108 11.875C15.2791 14.8991 12.4687 16.6408 9.49998 16.6408ZM9.49998 3.54663C6.9429 3.54663 4.49665 5.08246 2.78665 7.76621C2.1929 8.69246 2.1929 10.3075 2.78665 11.2337C4.49665 13.9175 6.9429 15.4533 9.49998 15.4533C12.0571 15.4533 14.5033 13.9175 16.2133 11.2337C16.8071 10.3075 16.8071 8.69246 16.2133 7.76621C14.5033 5.08246 12.0571 3.54663 9.49998 3.54663Z" fill="#666666"/>
</svg>
