<svg width="16" height="17" viewBox="0 0 16 17" fill="none" xmlns="http://www.w3.org/2000/svg">
<path d="M12 7.66683C11.7267 7.66683 11.5 7.44016 11.5 7.16683V5.8335C11.5 3.7335 10.9067 2.3335 8 2.3335C5.09333 2.3335 4.5 3.7335 4.5 5.8335V7.16683C4.5 7.44016 4.27333 7.66683 4 7.66683C3.72667 7.66683 3.5 7.44016 3.5 7.16683V5.8335C3.5 3.90016 3.96667 1.3335 8 1.3335C12.0333 1.3335 12.5 3.90016 12.5 5.8335V7.16683C12.5 7.44016 12.2733 7.66683 12 7.66683Z" fill="black" fill-opacity="0.6"/>
<path d="M11.3333 15.6665H4.66668C1.72668 15.6665 0.833344 14.7732 0.833344 11.8332V10.4998C0.833344 7.55984 1.72668 6.6665 4.66668 6.6665H11.3333C14.2733 6.6665 15.1667 7.55984 15.1667 10.4998V11.8332C15.1667 14.7732 14.2733 15.6665 11.3333 15.6665ZM4.66668 7.6665C2.28001 7.6665 1.83334 8.11984 1.83334 10.4998V11.8332C1.83334 14.2132 2.28001 14.6665 4.66668 14.6665H11.3333C13.72 14.6665 14.1667 14.2132 14.1667 11.8332V10.4998C14.1667 8.11984 13.72 7.6665 11.3333 7.6665H4.66668Z" fill="black" fill-opacity="0.6"/>
<path d="M5.33332 11.8336C5.24666 11.8336 5.15999 11.8136 5.07999 11.7802C4.99332 11.7469 4.92666 11.7002 4.86 11.6402C4.74 11.5136 4.66666 11.3469 4.66666 11.1669C4.66666 11.0802 4.68665 10.9936 4.71998 10.9136C4.75331 10.8269 4.8 10.7602 4.86 10.6936C4.92666 10.6336 4.99332 10.5869 5.07999 10.5536C5.31999 10.4469 5.61998 10.5069 5.80665 10.6936C5.86665 10.7602 5.91333 10.8336 5.94667 10.9136C5.98 10.9936 5.99999 11.0802 5.99999 11.1669C5.99999 11.3402 5.92665 11.5136 5.80665 11.6402C5.67998 11.7602 5.50666 11.8336 5.33332 11.8336Z" fill="black" fill-opacity="0.6"/>
<path d="M8.00001 11.8334C7.82668 11.8334 7.65335 11.7601 7.52668 11.6401C7.40668 11.5134 7.33334 11.3468 7.33334 11.1668C7.33334 11.0801 7.34667 10.9934 7.38667 10.9134C7.42 10.8334 7.46668 10.7601 7.52668 10.6934C7.68002 10.5401 7.91335 10.4668 8.12668 10.5134C8.17335 10.5201 8.21335 10.5334 8.25335 10.5534C8.29335 10.5668 8.33334 10.5868 8.37334 10.6134C8.40668 10.6334 8.44 10.6668 8.47334 10.6934C8.53334 10.7601 8.58002 10.8334 8.61335 10.9134C8.64669 10.9934 8.66668 11.0801 8.66668 11.1668C8.66668 11.3468 8.59334 11.5134 8.47334 11.6401C8.44 11.6668 8.40668 11.6934 8.37334 11.7201C8.33334 11.7468 8.29335 11.7668 8.25335 11.7801C8.21335 11.8001 8.17335 11.8134 8.12668 11.8201C8.08668 11.8268 8.04001 11.8334 8.00001 11.8334Z" fill="black" fill-opacity="0.6"/>
<path d="M10.6667 11.8334C10.4867 11.8334 10.32 11.7601 10.1933 11.6401C10.1333 11.5734 10.0867 11.5001 10.0533 11.4201C10.02 11.3401 10 11.2534 10 11.1668C10 10.9934 10.0733 10.8201 10.1933 10.6934C10.2267 10.6668 10.26 10.6401 10.2933 10.6134C10.3333 10.5868 10.3733 10.5668 10.4133 10.5534C10.4533 10.5334 10.4933 10.5201 10.5333 10.5134C10.7533 10.4668 10.98 10.5401 11.14 10.6934C11.26 10.8201 11.3333 10.9868 11.3333 11.1668C11.3333 11.2534 11.3133 11.3401 11.28 11.4201C11.2467 11.5068 11.2 11.5734 11.14 11.6401C11.0133 11.7601 10.84 11.8334 10.6667 11.8334Z" fill="black" fill-opacity="0.6"/>
</svg>
