<svg width="19" height="19" viewBox="0 0 19 19" fill="none" xmlns="http://www.w3.org/2000/svg">
<path d="M1.58331 6.72909C1.58331 3.95825 3.16665 2.77075 5.54165 2.77075H11.0833" stroke="#666666" stroke-width="1.5" stroke-miterlimit="10" stroke-linecap="round" stroke-linejoin="round"/>
<path d="M17.4166 8.3125V12.2708C17.4166 15.0417 15.8333 16.2292 13.4583 16.2292H5.54165C3.16665 16.2292 1.58331 15.0417 1.58331 12.2708V10.2758" stroke="#666666" stroke-width="1.5" stroke-miterlimit="10" stroke-linecap="round" stroke-linejoin="round"/>
<path d="M5.54169 7.125L8.01961 9.10417C8.83502 9.75333 10.1729 9.75333 10.9884 9.10417L11.9225 8.36" stroke="#666666" stroke-width="1.5" stroke-miterlimit="10" stroke-linecap="round" stroke-linejoin="round"/>
<path d="M15.4375 6.33333C16.5305 6.33333 17.4166 5.44723 17.4166 4.35417C17.4166 3.2611 16.5305 2.375 15.4375 2.375C14.3444 2.375 13.4583 3.2611 13.4583 4.35417C13.4583 5.44723 14.3444 6.33333 15.4375 6.33333Z" stroke="#666666" stroke-width="1.5" stroke-miterlimit="10" stroke-linecap="round" stroke-linejoin="round"/>
</svg>
